# xmcd CD database file
#
# Track frame offsets:
#	150
#	20180
#	41466
#	63173
#	86174
#	107517
#	123977
#	152764
#	171172
#	192901
#	215939
#
# Disc length: 3101 seconds
#
# Revision: 0
# Processed by: cddbd v1.5.1PL0 Copyright (c) Steve Scherf et al.
# Submitted via: CDex 1.50
#
DISCID=980c1b0b
DTITLE=Bill Evans - Bill Evans For Lovers
DYEAR=1900
DGENRE=Jazz
TTITLE0=For Heaven's Sake
TTITLE1=But Beautiful
TTITLE2=If You Could See Me Now
TTITLE3=A Time For Love
TTITLE4=Spring Is Here
TTITLE5=It Must Be Love
TTITLE6=Lover Man
TTITLE7=Only Child
TTITLE8=My Foolish Heart
TTITLE9=Melinda
TTITLE10=Danny Boy
EXTD=
EXTT0=
EXTT1=
EXTT2=
EXTT3=
EXTT4=
EXTT5=
EXTT6=
EXTT7=
EXTT8=
EXTT9=
EXTT10=
PLAYORDER=
